<svg width="18" height="18" viewBox="0 0 18 18" fill="none" xmlns="http://www.w3.org/2000/svg">
<rect width="18" height="18" fill="white"/>
<path d="M17.9529 6.42334C17.8344 6.06413 17.5111 5.80982 17.1302 5.77585L11.9341 5.31094L9.88058 0.57278C9.72896 0.224673 9.38399 0 9.00001 0C8.61603 0 8.27092 0.224673 8.12027 0.57278L6.06675 5.31094L0.869867 5.77585C0.48891 5.81049 0.166319 6.06481 0.0471155 6.42334C-0.0714013 6.78254 0.0380516 7.17653 0.326172 7.42556L4.25398 10.8199L3.09587 15.8469C3.01113 16.2165 3.15671 16.5987 3.4679 16.8204C3.63517 16.9402 3.83169 17 4.0289 17C4.19836 17 4.36797 16.9556 4.51944 16.8663L9.00001 14.226L13.4798 16.8663C13.8084 17.0598 14.2216 17.0421 14.5321 16.8204C14.8433 16.5987 14.9889 16.2165 14.9042 15.8469L13.746 10.8199L17.6738 7.42556C17.9618 7.17653 18.0714 6.78335 17.9529 6.42334V6.42334Z" fill="black"/>
</svg>
