<svg width="18" height="18" viewBox="0 0 18 18" fill="none" background-color="yellow" xmlns="http://www.w3.org/2000/svg">
<rect width="18" height="18" fill="white"/>
<path d="M17.0856 6.27386L17.0857 6.27387C17.271 6.29039 17.423 6.41315 17.4781 6.58C17.5329 6.74686 17.4831 6.92938 17.3469 7.04725C17.3469 7.04729 17.3468 7.04733 17.3468 7.04736L13.4191 10.4416L13.1912 10.6386L13.2588 10.9321L14.4168 15.9586C14.4561 16.1301 14.3896 16.308 14.242 16.4132L14.2416 16.4135C14.0922 16.5201 13.8923 16.529 13.7335 16.4354L9.25389 13.7952L9.00003 13.6456L8.74617 13.7952L4.2656 16.4355L4.26546 16.4356C4.19264 16.4785 4.11103 16.5 4.0289 16.5C3.93287 16.5 3.83878 16.471 3.759 16.4139L3.75801 16.4132C3.61049 16.3081 3.54397 16.1303 3.58317 15.9588C3.58319 15.9588 3.58321 15.9587 3.58323 15.9586L4.74122 10.9321L4.80885 10.6386L4.58091 10.4416L0.653135 7.04728C0.653123 7.04727 0.653111 7.04726 0.653099 7.04725C0.516915 6.92952 0.46725 6.74646 0.521764 6.58053C0.577564 6.41344 0.729649 6.29075 0.914937 6.27381C0.91501 6.2738 0.915083 6.2738 0.915155 6.27379L6.11131 5.80895L6.40733 5.78246L6.52552 5.50976L8.57903 0.771609L8.57914 0.771368C8.64932 0.609194 8.81215 0.5 9.00001 0.5C9.18753 0.5 9.35095 0.60899 9.42213 0.772353C9.42215 0.77238 9.42216 0.772407 9.42217 0.772434L11.4753 5.50976L11.5935 5.78246L11.8895 5.80895L17.0856 6.27386Z" stroke="black"/>
</svg>
