<?xml version="1.0" encoding="utf-8"?>
<svg width="18" height="18" viewBox="0 0 18 18" fill="none" xmlns="http://www.w3.org/2000/svg">
  <rect width="18" height="18" style="fill: rgb(12, 37, 47);"/>
  <path d="M 17.086 6.274 L 17.086 6.274 C 17.271 6.29 17.423 6.413 17.478 6.58 C 17.533 6.747 17.483 6.929 17.347 7.047 C 17.347 7.047 17.347 7.047 17.347 7.047 L 13.419 10.442 L 13.191 10.639 L 13.259 10.932 L 14.417 15.959 C 14.456 16.13 14.39 16.308 14.242 16.413 L 14.242 16.414 C 14.092 16.52 13.892 16.529 13.734 16.435 L 9.254 13.795 L 9 13.646 L 8.746 13.795 L 4.266 16.436 L 4.265 16.436 C 4.193 16.479 4.111 16.5 4.029 16.5 C 3.933 16.5 3.839 16.471 3.759 16.414 L 3.758 16.413 C 3.61 16.308 3.544 16.13 3.583 15.959 C 3.583 15.959 3.583 15.959 3.583 15.959 L 4.741 10.932 L 4.809 10.639 L 4.581 10.442 L 0.653 7.047 C 0.653 7.047 0.653 7.047 0.653 7.047 C 0.517 6.93 0.467 6.746 0.522 6.581 C 0.578 6.413 0.73 6.291 0.915 6.274 C 0.915 6.274 0.915 6.274 0.915 6.274 L 6.111 5.809 L 6.407 5.782 L 6.526 5.51 L 8.579 0.772 L 8.579 0.771 C 8.649 0.609 8.812 0.5 9 0.5 C 9.188 0.5 9.351 0.609 9.422 0.772 C 9.422 0.772 9.422 0.772 9.422 0.772 L 11.475 5.51 L 11.594 5.782 L 11.89 5.809 L 17.086 6.274 Z" stroke="#e5e5e5" style="fill: rgb(12, 37, 47); paint-order: stroke;"/>
  <path fill-rule="evenodd" clip-rule="evenodd" d="M9 0C8.61603 4.46404e-06 8.27092 0.224676 8.12027 0.57278L6.06675 5.31094L0.869867 5.77585C0.48891 5.81049 0.166319 6.06481 0.0471155 6.42334C-0.0714013 6.78254 0.0380516 7.17653 0.326172 7.42556L4.25398 10.8199L3.09587 15.8469C3.01113 16.2165 3.15671 16.5987 3.4679 16.8204C3.63517 16.9402 3.83169 17 4.0289 17C4.19836 17 4.36797 16.9556 4.51944 16.8663L9 14.226V0Z" style="fill: rgb(229, 229, 229);"/>
</svg>